<svg width="24" height="24" viewBox="0 0 24 24" fill="none" xmlns="http://www.w3.org/2000/svg">
<g clip-path="url(#clip0_1_16)">
<path d="M12.001 2C6.47901 2 2.00201 6.477 2.00201 11.999C2.00201 16.989 5.65801 21.125 10.439 21.878V14.89H7.89901V11.999H10.439V9.796C10.439 7.288 11.932 5.905 14.215 5.905C15.309 5.905 16.455 6.1 16.455 6.1V8.559H15.191C13.951 8.559 13.563 9.331 13.563 10.122V11.997H16.334L15.891 14.888H13.563V21.876C18.344 21.127 22 16.99 22 11.999C22 6.477 17.523 2 12.001 2Z" fill="white"/>
</g>
<defs>
<clipPath id="clip0_1_16">
<rect width="24" height="24" fill="white"/>
</clipPath>
</defs>
</svg>
