<svg width="26" height="22" viewBox="0 0 26 22" fill="none" xmlns="http://www.w3.org/2000/svg">
<path d="M21.4444 1.5H4.55556C4.2756 1.5 4.00712 1.61121 3.80917 1.80917C3.61121 2.00712 3.5 2.2756 3.5 2.55556V19.4444C3.5 19.7244 3.61121 19.9929 3.80917 20.1908C4.00712 20.3888 4.2756 20.5 4.55556 20.5H21.4444C21.7244 20.5 21.9929 20.3888 22.1908 20.1908C22.3888 19.9929 22.5 19.7244 22.5 19.4444V2.55556C22.5 2.2756 22.3888 2.00712 22.1908 1.80917C21.9929 1.61121 21.7244 1.5 21.4444 1.5ZM9.13561 17.6891H6.31517V8.62183H9.13561V17.6891ZM7.72539 7.38367C7.29203 7.38367 6.87641 7.21151 6.56998 6.90508C6.26354 6.59865 6.09139 6.18303 6.09139 5.74967C6.09139 5.3163 6.26354 4.90069 6.56998 4.59425C6.87641 4.28782 7.29203 4.11567 7.72539 4.11567C8.15875 4.11567 8.57437 4.28782 8.8808 4.59425C9.18724 4.90069 9.35939 5.3163 9.35939 5.74967C9.35939 6.18303 9.18724 6.59865 8.8808 6.90508C8.57437 7.21151 8.15875 7.38367 7.72539 7.38367ZM19.6901 17.6891H16.8728V13.28C16.8728 12.2287 16.8538 10.8765 15.4077 10.8765C13.9405 10.8765 13.7178 12.0228 13.7178 13.2061V17.6901H10.9026V8.62289H13.6048V9.86211H13.6439C14.0186 9.14961 14.9391 8.39806 16.3081 8.39806C19.1623 8.39806 19.6891 10.2748 19.6891 12.7174L19.6901 17.6891Z" fill="white"/>
</svg>
