<svg width="24" height="24" viewBox="0 0 24 24" fill="none" xmlns="http://www.w3.org/2000/svg">
<g clip-path="url(#clip0_1_20)">
<path d="M20.947 8.324C20.9369 7.56662 20.7951 6.81678 20.528 6.108C20.2964 5.51015 19.9425 4.9672 19.4892 4.51383C19.0358 4.06046 18.4929 3.70665 17.895 3.475C17.1953 3.21236 16.4562 3.07034 15.709 3.055C14.747 3.012 14.442 3 12 3C9.55801 3 9.24501 3 8.29001 3.055C7.54317 3.07045 6.80436 3.21247 6.10501 3.475C5.50707 3.70649 4.96403 4.06024 4.51064 4.51363C4.05725 4.96702 3.7035 5.51006 3.47201 6.108C3.20884 6.80713 3.06713 7.54611 3.05301 8.293C3.01001 9.256 2.99701 9.561 2.99701 12.003C2.99701 14.445 2.99701 14.757 3.05301 15.713C3.06801 16.461 3.20901 17.199 3.47201 17.9C3.70389 18.4978 4.05791 19.0406 4.51145 19.4938C4.96499 19.947 5.50807 20.3006 6.10601 20.532C6.80344 20.8052 7.54238 20.9574 8.29101 20.982C9.25401 21.025 9.55901 21.038 12.001 21.038C14.443 21.038 14.756 21.038 15.711 20.982C16.4582 20.9673 17.1974 20.8256 17.897 20.563C18.4947 20.3311 19.0375 19.9772 19.4909 19.5238C19.9442 19.0705 20.2981 18.5277 20.53 17.93C20.793 17.23 20.934 16.492 20.949 15.743C20.992 14.781 21.005 14.476 21.005 12.033C21.003 9.591 21.003 9.281 20.947 8.324ZM11.994 16.621C9.44001 16.621 7.37101 14.552 7.37101 11.998C7.37101 9.444 9.44001 7.375 11.994 7.375C13.2201 7.375 14.396 7.86207 15.263 8.72905C16.1299 9.59603 16.617 10.7719 16.617 11.998C16.617 13.2241 16.1299 14.4 15.263 15.267C14.396 16.1339 13.2201 16.621 11.994 16.621ZM16.801 8.282C16.6594 8.28213 16.5192 8.25434 16.3883 8.20021C16.2575 8.14608 16.1386 8.06668 16.0385 7.96655C15.9383 7.86643 15.8589 7.74754 15.8048 7.61669C15.7507 7.48584 15.7229 7.3456 15.723 7.204C15.723 7.0625 15.7509 6.92239 15.805 6.79166C15.8592 6.66093 15.9385 6.54215 16.0386 6.44209C16.1387 6.34204 16.2574 6.26267 16.3882 6.20852C16.5189 6.15437 16.659 6.1265 16.8005 6.1265C16.942 6.1265 17.0821 6.15437 17.2129 6.20852C17.3436 6.26267 17.4624 6.34204 17.5624 6.44209C17.6625 6.54215 17.7418 6.66093 17.796 6.79166C17.8501 6.92239 17.878 7.0625 17.878 7.204C17.878 7.8 17.396 8.282 16.801 8.282Z" fill="white"/>
<path d="M11.994 14.982C13.6525 14.982 14.997 13.6375 14.997 11.979C14.997 10.3205 13.6525 8.97601 11.994 8.97601C10.3355 8.97601 8.99103 10.3205 8.99103 11.979C8.99103 13.6375 10.3355 14.982 11.994 14.982Z" fill="white"/>
</g>
<defs>
<clipPath id="clip0_1_20">
<rect width="24" height="24" fill="white"/>
</clipPath>
</defs>
</svg>
